<?xml version="1.0" standalone="no"?>
<!DOCTYPE svg PUBLIC "-//W3C//DTD SVG 20010904//EN"
 "http://www.w3.org/TR/2001/REC-SVG-20010904/DTD/svg10.dtd">
<svg version="1.0" xmlns="http://www.w3.org/2000/svg"
 width="181.000000pt" height="174.000000pt" viewBox="0 0 181.000000 174.000000"
 preserveAspectRatio="xMidYMid meet">

<g transform="translate(0.000000,174.000000) scale(0.100000,-0.100000)"
fill="#000000" stroke="none">
<path d="M397 1565 c-53 -20 -113 -66 -148 -113 -59 -80 -59 -83 -59 -571 l0
-446 29 -60 c34 -72 99 -135 167 -161 46 -18 80 -19 504 -19 l455 0 57 28 c65
32 121 89 152 156 20 45 21 57 21 506 l0 460 -28 57 c-30 62 -83 115 -149 150
-43 23 -44 23 -503 25 -378 2 -467 -1 -498 -12z m929 -80 c62 -18 116 -63 143
-118 20 -42 21 -57 21 -483 l0 -440 -32 -54 c-26 -42 -45 -61 -87 -82 l-53
-28 -434 0 c-342 0 -441 3 -467 13 -47 20 -95 64 -120 111 -22 40 -22 46 -22
481 0 410 1 442 19 475 36 69 92 114 161 131 17 4 208 7 426 8 321 1 405 -2
445 -14z"/>
<path d="M852 1258 c-8 -8 -12 -60 -12 -170 l0 -158 -161 -2 c-153 -3 -162 -4
-176 -25 -13 -19 -12 -24 6 -42 19 -19 33 -21 176 -21 l155 0 0 -158 c0 -110
4 -162 12 -170 18 -18 56 -14 68 7 5 11 10 86 10 170 l0 151 151 0 c84 0 159
5 170 10 21 12 25 50 7 68 -8 8 -60 12 -170 12 l-158 0 0 151 c0 84 -5 159
-10 170 -12 21 -50 25 -68 7z"/>
</g>
</svg>
