<?xml version="1.0" standalone="no"?>
<!DOCTYPE svg PUBLIC "-//W3C//DTD SVG 20010904//EN"
 "http://www.w3.org/TR/2001/REC-SVG-20010904/DTD/svg10.dtd">
<svg version="1.0" xmlns="http://www.w3.org/2000/svg"
 width="448.000000pt" height="400.000000pt" viewBox="0 0 448.000000 400.000000"
 preserveAspectRatio="xMidYMid meet">

<g transform="translate(0.000000,400.000000) scale(0.100000,-0.100000)"
fill="#000000" stroke="none">
<path d="M1251 3584 c-169 -45 -301 -180 -346 -351 -23 -87 -22 -2380 0 -2468
45 -172 179 -305 352 -350 84 -22 942 -22 1026 0 178 46 320 193 357 369 7 34
10 157 8 343 l-3 290 -29 37 c-55 72 -150 85 -222 31 -61 -47 -64 -63 -64
-365 0 -303 -3 -318 -66 -366 l-37 -29 -458 0 c-447 0 -458 0 -485 21 -15 11
-37 33 -48 48 -21 27 -21 33 -24 1192 -3 1289 -7 1207 64 1260 l37 29 444 3
c495 3 488 4 541 -66 l27 -35 5 -298 c5 -281 6 -299 26 -325 32 -44 68 -66
116 -71 58 -7 108 15 144 63 l29 37 3 290 c2 180 -1 309 -8 341 -36 176 -179
325 -355 370 -84 23 -952 22 -1034 0z"/>
<path d="M3218 2780 c-67 -36 -97 -108 -77 -182 9 -36 42 -74 207 -240 l196
-198 -951 0 -950 0 -33 -22 c-50 -34 -72 -71 -77 -125 -5 -65 26 -120 87 -150
l44 -23 940 0 940 0 -201 -202 c-192 -194 -202 -205 -208 -250 -9 -60 21 -128
69 -158 40 -24 124 -27 164 -6 41 22 699 687 711 719 16 42 13 86 -9 131 -27
57 -662 690 -712 711 -49 20 -95 18 -140 -5z"/>
</g>
</svg>
