<?xml version="1.0" standalone="no"?>
<!DOCTYPE svg PUBLIC "-//W3C//DTD SVG 20010904//EN"
 "http://www.w3.org/TR/2001/REC-SVG-20010904/DTD/svg10.dtd">
<svg version="1.0" xmlns="http://www.w3.org/2000/svg"
 width="185.000000pt" height="216.000000pt" viewBox="0 0 185.000000 216.000000"
 preserveAspectRatio="xMidYMid meet">

<g transform="translate(0.000000,216.000000) scale(0.100000,-0.100000)"
fill="#000000" stroke="none">
<path d="M296 1784 c-14 -14 -16 -89 -16 -683 0 -505 3 -670 12 -679 7 -7 21
-12 32 -12 13 0 138 102 315 255 252 220 295 254 309 243 9 -7 141 -122 295
-255 286 -249 313 -267 337 -223 7 13 10 232 8 685 -3 579 -5 667 -18 675 -9
6 -263 10 -637 10 -552 0 -623 -2 -637 -16z m1204 -655 c0 -569 0 -581 -19
-568 -10 8 -132 113 -271 234 -138 121 -262 221 -273 223 -19 2 -248 -188
-549 -456 -17 -14 -18 13 -18 566 l0 582 565 0 565 0 0 -581z"/>
</g>
</svg>
