<?xml version="1.0" standalone="no"?>
<!DOCTYPE svg PUBLIC "-//W3C//DTD SVG 20010904//EN"
 "http://www.w3.org/TR/2001/REC-SVG-20010904/DTD/svg10.dtd">
<svg version="1.0" xmlns="http://www.w3.org/2000/svg"
 width="189.000000pt" height="204.000000pt" viewBox="0 0 189.000000 204.000000"
 preserveAspectRatio="xMidYMid meet">

<g transform="translate(0.000000,204.000000) scale(0.100000,-0.100000)"
fill="#000000" stroke="none">
<path d="M830 1734 c-113 -52 -180 -148 -188 -270 -5 -85 7 -130 55 -201 106
-158 328 -183 476 -54 111 98 132 284 47 412 -82 125 -256 175 -390 113z m231
-85 c72 -36 129 -127 129 -205 0 -77 -49 -161 -116 -200 -154 -90 -347 21
-347 201 0 173 179 283 334 204z"/>
<path d="M671 1084 c-161 -43 -291 -182 -321 -343 -5 -29 -10 -125 -10 -212
l0 -159 615 0 615 0 0 173 c0 94 -5 192 -11 216 -36 159 -161 283 -326 326
-79 21 -484 20 -562 -1z m609 -105 c67 -31 132 -95 168 -164 25 -46 27 -61 30
-202 l4 -153 -527 0 -527 0 4 148 c3 123 8 155 26 194 24 55 89 128 139 159
71 44 104 48 373 46 252 -2 256 -2 310 -28z"/>
</g>
</svg>
