<?xml version="1.0" standalone="no"?>
<!DOCTYPE svg PUBLIC "-//W3C//DTD SVG 20010904//EN"
 "http://www.w3.org/TR/2001/REC-SVG-20010904/DTD/svg10.dtd">
<svg version="1.0" xmlns="http://www.w3.org/2000/svg"
 width="547.000000pt" height="558.000000pt" viewBox="0 0 547.000000 558.000000"
 preserveAspectRatio="xMidYMid meet">

<g transform="translate(0.000000,558.000000) scale(0.100000,-0.100000)"
fill="#000000" stroke="none">
<path d="M2213 5475 c-162 -44 -303 -164 -370 -315 -33 -75 -44 -132 -46 -242
l-2 -93 -65 -8 c-171 -21 -271 -62 -370 -153 -119 -111 -170 -226 -177 -405
l-6 -116 -83 -7 c-235 -19 -425 -165 -499 -385 l-25 -73 0 -1475 0 -1474 25
-76 c33 -97 77 -164 154 -236 70 -64 152 -110 238 -132 86 -22 2230 -22 2316
0 165 43 306 162 374 315 33 75 44 132 46 242 l2 93 65 8 c171 21 271 62 370
153 119 111 170 226 177 405 l6 116 83 7 c235 19 425 165 499 385 l25 73 0
1475 0 1474 -25 76 c-33 97 -77 164 -154 236 -70 64 -152 110 -238 132 -83 22
-2240 21 -2320 0z m2308 -257 c87 -39 158 -130 179 -228 8 -40 10 -428 8
-1465 -3 -1331 -4 -1412 -21 -1450 -58 -128 -171 -205 -304 -205 l-43 0 -2
1253 -3 1252 -26 67 c-66 170 -194 292 -369 351 -65 22 -69 22 -984 25 l-919
3 5 92 c6 109 27 165 87 230 44 47 105 83 164 94 21 5 522 6 1115 3 973 -5
1080 -7 1113 -22z m-609 -681 c70 -34 131 -101 158 -173 20 -54 20 -71 20
-1484 0 -1413 0 -1430 -20 -1484 -42 -112 -146 -190 -271 -203 -47 -5 -63 -3
-70 8 -5 8 -9 545 -9 1245 0 1358 4 1271 -63 1399 -38 71 -133 170 -201 210
-27 16 -78 40 -115 54 l-66 26 -922 3 -923 3 0 84 c0 174 91 299 244 336 17 4
515 6 1106 6 l1075 -2 57 -28z m-617 -677 c64 -31 124 -91 155 -155 l25 -50 0
-1450 0 -1450 -27 -55 c-30 -61 -82 -116 -143 -152 l-40 -23 -1099 -3 c-1231
-3 -1153 -7 -1240 70 -57 50 -91 106 -106 178 -8 40 -10 428 -8 1465 3 1331 4
1412 21 1450 28 63 64 110 110 143 89 64 33 61 1222 59 l1080 -2 50 -25z"/>
</g>
</svg>
